<?xml version="1.0" encoding="UTF-8"?>
<!-- Generator: Adobe Illustrator 18.0.0, SVG Export Plug-In . SVG Version: 6.00 Build 0)  -->
<!DOCTYPE svg PUBLIC "-//W3C//DTD SVG 1.1//EN" "http://www.w3.org/Graphics/SVG/1.1/DTD/svg11.dtd">
<svg version="1.1" id="Layer_1" xmlns="http://www.w3.org/2000/svg" xmlns:xlink="http://www.w3.org/1999/xlink" x="0px" y="0px" viewBox="0 0 44 24.5" enable-background="new 0 0 44 24.5" xml:space="preserve">
<polygon fill="#F49900" points="22,21.3 44,10.3 44,13.5 22,24.5 0,13.5 0,10.3 "/>
<path fill="#F49900" d="M28.3,15.3c-1.2-2.2-3.6-3.8-6.3-3.8c-2.7,0-5,1.6-6.3,3.8c0,0,1.4-1.4,3.7-1.4c2.3,0,4.2,1.4,5.2,3.2  C24.7,17,28.3,15.3,28.3,15.3z"/>
<path fill="#F49900" d="M35.5,11.7c-3-5.5-9-9.2-15.7-9.2c-6,0-11.2,3-14.4,7.5c0,0,0,0-0.1,0.1C8.5,4.1,14.8,0,22,0  c7.2,0,13.8,4,17,9.9L35.5,11.7z"/>
<path fill="#F49900" d="M30.1,14.4C30.1,14.4,30.1,14.4,30.1,14.4l3.6-1.8C31.3,8.6,27,5.9,22,5.9c-4.9,0-9.3,2.8-11.6,6.7  c2.2-2.5,5.5-4.2,9.1-4.2C24,8.3,27.9,10.8,30.1,14.4L30.1,14.4z"/>
</svg>